<svg xmlns="http://www.w3.org/2000/svg" xmlns:xlink="http://www.w3.org/1999/xlink" version="1.1" height="428.3920620732789" width="428.39202880859375" viewBox="0 0 428.39202880859375 428.3920620732789"><g id="SvgjsG1012" rel="mainfill" name="main_text" xmlns:name="mainText_mainfill" fill="#ffffff" transform="translate(72.88399958610535,221.3730291750672)"><path d="M3.22 50.18599999999999 q1.518 0.552 3.174 0.966 t4.048 0.414 q3.772 0 5.635 -1.541 t1.863 -4.163 q0 -1.288 -0.391 -2.208 t-1.173 -1.587 t-1.955 -1.219 t-2.737 -1.196 l-2.622 -1.058 q-1.334 -0.552 -2.438 -1.219 t-1.909 -1.633 t-1.265 -2.231 t-0.46 -3.013 q0 -4.186 2.852 -6.555 t8.004 -2.369 q2.208 0 4.186 0.368 t3.496 0.92 q-0.23 1.932 -1.012 3.818 q-1.242 -0.46 -2.875 -0.828 t-3.703 -0.368 q-2.898 0 -4.462 1.173 t-1.564 3.519 q0 0.966 0.391 1.725 t1.035 1.334 t1.518 1.035 t1.84 0.828 l2.576 1.012 q1.84 0.736 3.266 1.541 t2.438 1.886 t1.541 2.553 t0.529 3.45 q0 4.738 -3.266 7.475 t-9.154 2.737 q-1.426 0 -2.576 -0.092 t-2.139 -0.276 t-1.909 -0.46 t-1.886 -0.598 q0.092 -1.012 0.414 -2.07 t0.69 -2.07 z M44.482 51.105999999999995 q0.368 0.644 0.644 1.61 t0.322 1.978 q-2.714 1.058 -6.21 1.058 q-5.888 0 -8.878 -3.335 t-2.99 -8.993 q0 -2.622 0.736 -4.876 t2.185 -3.91 t3.611 -2.622 t5.014 -0.966 q1.932 0 3.404 0.23 t2.806 0.736 q0 0.782 -0.207 1.817 t-0.575 1.817 q-2.254 -0.782 -5.152 -0.782 q-3.542 0 -5.29 2.346 t-1.748 6.21 q0 4.416 1.978 6.463 t5.428 2.047 q1.38 0 2.553 -0.184 t2.369 -0.644 z M50.738 31.601999999999997 q0.506 -0.092 0.966 -0.138 t0.966 -0.046 t1.012 0.046 t0.92 0.138 q0.138 0.69 0.276 1.817 t0.138 1.909 q0.966 -1.564 2.553 -2.714 t4.071 -1.15 q0.368 0 0.759 0.023 t0.667 0.069 q0.092 0.414 0.138 0.874 t0.046 0.966 q0 0.552 -0.069 1.15 t-0.161 1.15 q-0.368 -0.092 -0.759 -0.092 l-0.621 0 q-1.242 0 -2.369 0.345 t-2.024 1.219 t-1.426 2.392 t-0.529 3.91 l0 11.73 q-0.506 0.092 -1.127 0.138 t-1.127 0.046 t-1.127 -0.046 t-1.173 -0.138 l0 -23.598 z M67.574 31.601999999999997 q0.506 -0.092 1.15 -0.138 t1.104 -0.046 q0.506 0 1.15 0.046 t1.15 0.138 l0 12.926 q0 2.208 0.414 3.657 t1.242 2.277 t2.024 1.15 t2.76 0.322 q2.346 0 4.002 -0.506 l0 -19.826 q0.506 -0.092 1.127 -0.138 t1.127 -0.046 t1.127 0.046 t1.127 0.138 l0 22.862 q-1.61 0.46 -3.841 0.874 t-4.623 0.414 q-2.254 0 -4.255 -0.391 t-3.519 -1.587 t-2.392 -3.358 t-0.874 -5.704 l0 -13.11 z M94.254 31.601999999999997 q0.506 -0.092 0.989 -0.138 t0.989 -0.046 t0.943 0.046 t0.943 0.138 q0.138 0.69 0.276 1.817 t0.138 1.909 q0.414 -0.828 1.035 -1.587 t1.472 -1.357 t1.955 -0.966 t2.438 -0.368 q2.76 0 4.255 1.127 t2.277 3.151 q0.46 -0.782 1.127 -1.564 t1.495 -1.38 t1.886 -0.966 t2.392 -0.368 q4.094 0 5.957 2.3 t1.863 6.808 l0 15.042 q-0.506 0.092 -1.15 0.138 t-1.15 0.046 t-1.127 -0.046 t-1.127 -0.138 l0 -13.708 q0 -3.174 -0.966 -4.761 t-3.174 -1.587 q-2.346 0 -3.795 1.702 t-1.449 5.014 l0 13.34 q-0.506 0.092 -1.127 0.138 t-1.127 0.046 t-1.127 -0.046 t-1.127 -0.138 l0 -14.03 q0 -3.082 -0.92 -4.623 t-2.944 -1.541 q-1.15 0 -2.162 0.506 t-1.771 1.518 t-1.196 2.553 t-0.437 3.565 l0 12.052 q-0.506 0.092 -1.127 0.138 t-1.127 0.046 t-1.15 -0.046 t-1.15 -0.138 l0 -23.598 z M133.906 22.08 q0.69 -0.092 1.633 -0.184 t1.978 -0.161 t2.07 -0.115 t2.001 -0.046 q2.53 0 4.807 0.506 t4.002 1.748 t2.737 3.289 t1.012 5.129 q0 3.22 -1.081 5.359 t-2.852 3.427 t-4.025 1.817 t-4.6 0.529 q-0.874 0 -1.541 -0.023 t-1.449 -0.115 l0 11.96 q-1.104 0.138 -2.346 0.138 q-0.552 0 -1.173 -0.023 t-1.173 -0.115 l0 -33.12 z M138.598 39.146 q0.736 0.092 1.288 0.138 t1.61 0.046 q1.426 0 2.829 -0.299 t2.507 -1.081 t1.771 -2.139 t0.667 -3.519 q0 -1.886 -0.575 -3.174 t-1.587 -2.07 t-2.438 -1.104 t-3.082 -0.322 q-1.702 0 -2.99 0.138 l0 13.386 z M169.142 55.751999999999995 q-2.76 0 -4.83 -0.943 t-3.45 -2.599 t-2.047 -3.91 t-0.667 -4.876 t0.667 -4.876 t2.047 -3.91 t3.45 -2.622 t4.83 -0.966 t4.83 0.966 t3.45 2.622 t2.047 3.91 t0.667 4.876 t-0.667 4.876 t-2.047 3.91 t-3.45 2.599 t-4.83 0.943 z M169.142 52.117999999999995 q3.174 0 4.692 -2.3 t1.518 -6.394 t-1.518 -6.371 t-4.692 -2.277 t-4.669 2.277 t-1.495 6.371 t1.495 6.394 t4.669 2.3 z M187.496 35.19 l-2.99 0 q-0.092 -0.368 -0.138 -0.851 t-0.046 -0.943 t0.046 -0.943 t0.138 -0.851 l7.452 0 l0 23.598 q-0.506 0.092 -1.127 0.138 t-1.127 0.046 q-0.46 0 -1.081 -0.046 t-1.127 -0.138 l0 -20.01 z M186.484 26.403999999999996 q-0.092 -0.552 -0.115 -1.196 t-0.023 -1.15 t0.023 -1.15 t0.115 -1.15 q0.598 -0.092 1.288 -0.138 t1.196 -0.046 t1.196 0.046 t1.242 0.138 q0.092 0.506 0.115 1.15 t0.023 1.15 t-0.023 1.15 t-0.115 1.196 q-0.552 0.092 -1.219 0.138 t-1.173 0.046 q-0.552 0 -1.242 -0.046 t-1.288 -0.138 z M199.364 31.601999999999997 q0.506 -0.092 0.989 -0.138 t0.989 -0.046 t0.943 0.046 t0.943 0.138 q0.138 0.69 0.276 1.863 t0.138 1.955 q0.46 -0.782 1.173 -1.564 t1.633 -1.403 t2.116 -1.012 t2.622 -0.391 q4.048 0 5.98 2.323 t1.932 6.877 l0 14.95 q-0.506 0.092 -1.15 0.138 t-1.15 0.046 t-1.127 -0.046 t-1.127 -0.138 l0 -13.708 q0 -3.266 -1.012 -4.807 t-3.22 -1.541 q-1.288 0 -2.438 0.46 t-2.024 1.426 t-1.403 2.507 t-0.529 3.703 l0 11.96 q-0.506 0.092 -1.127 0.138 t-1.127 0.046 t-1.15 -0.046 t-1.15 -0.138 l0 -23.598 z M226.826 35.236 l-3.588 0 l-0.184 -0.644 l7.912 -8.832 l0.368 0 l0 5.842 l5.98 0 q0.184 0.782 0.184 1.748 q0 0.506 -0.046 0.966 t-0.138 0.92 l-5.98 0 l0 10.764 q0 1.932 0.161 3.082 t0.552 1.771 t1.058 0.828 t1.679 0.207 q0.782 0 1.472 -0.115 t1.242 -0.253 q0.322 0.92 0.391 1.886 t0.069 1.702 q-0.92 0.23 -1.932 0.345 t-2.162 0.115 q-3.312 0 -5.175 -1.61 t-1.863 -5.336 l0 -13.386 z M245.82399999999998 44.52799999999999 q0.092 3.864 2.001 5.658 t5.635 1.794 q3.266 0 6.21 -1.15 q0.368 0.69 0.598 1.679 t0.276 1.955 q-1.518 0.644 -3.335 0.966 t-4.025 0.322 q-3.22 0 -5.52 -0.897 t-3.795 -2.53 t-2.185 -3.864 t-0.69 -4.899 q0 -2.622 0.667 -4.899 t2.047 -3.956 t3.473 -2.668 t4.945 -0.989 q2.438 0 4.278 0.828 t3.082 2.277 t1.886 3.45 t0.644 4.347 q0 0.644 -0.046 1.357 t-0.092 1.219 l-16.054 0 z M257.508 41.123999999999995 q0 -1.288 -0.345 -2.461 t-1.012 -2.047 t-1.702 -1.403 t-2.461 -0.529 q-2.806 0 -4.301 1.702 t-1.817 4.738 l11.638 0 z M267.996 31.601999999999997 q0.506 -0.092 0.966 -0.138 t0.966 -0.046 t1.012 0.046 t0.92 0.138 q0.138 0.69 0.276 1.817 t0.138 1.909 q0.966 -1.564 2.553 -2.714 t4.071 -1.15 q0.368 0 0.759 0.023 t0.667 0.069 q0.092 0.414 0.138 0.874 t0.046 0.966 q0 0.552 -0.069 1.15 t-0.161 1.15 q-0.368 -0.092 -0.759 -0.092 l-0.621 0 q-1.242 0 -2.369 0.345 t-2.024 1.219 t-1.426 2.392 t-0.529 3.91 l0 11.73 q-0.506 0.092 -1.127 0.138 t-1.127 0.046 t-1.127 -0.046 t-1.173 -0.138 l0 -23.598 z"></path></g><g id="SvgjsG1013" rel="mainfill" name="slogan_text" xmlns:name="sloganText_mainfill" fill="#ffffff" transform="translate(121.5060122013092,277.64503425624395)"><path d="M5.9 9.48 q2.58 0 3.96 1.66 l-1.38 1.2 q-0.8 -1.26 -2.58 -1.3 q-1.34 0 -2.18 0.64 t-0.84 1.74 q0 0.96 0.64 1.52 t2.4 1.1 q2.28 0.66 3.23 1.61 t0.95 2.57 q0 1.88 -1.4 3 t-3.58 1.14 q-1.46 0 -2.6 -0.52 t-1.76 -1.44 l1.44 -1.18 q0.46 0.76 1.28 1.17 t1.74 0.41 q1.26 0 2.17 -0.71 t0.91 -1.75 q0 -0.94 -0.53 -1.48 t-1.75 -0.92 l-1.62 -0.54 q-1.82 -0.62 -2.57 -1.55 t-0.75 -2.29 q0 -1.8 1.34 -2.93 t3.48 -1.15 z M14.96 11.98 l0 2.66 l2.76 0 l0 1.32 l-2.76 0 l0 5 q0 1.12 0.36 1.48 t1.04 0.36 q0.78 0 1.38 -0.32 l0.06 1.42 q-0.8 0.34 -1.82 0.34 q-1.44 0 -2.01 -0.71 t-0.57 -2.33 l0 -5.24 l-2.04 0 l0 -1.32 l2.04 0 l0 -2.66 l1.56 0 z M24.1 14.4 q2.18 0 3.56 1.35 t1.44 3.57 q0 2.14 -1.4 3.51 t-3.6 1.41 q-2.2 0 -3.58 -1.39 t-1.42 -3.53 q0 -2.16 1.4 -3.53 t3.6 -1.39 z M20.78 19.32 q0 1.54 0.93 2.49 t2.39 0.99 q1.46 0 2.38 -0.97 t0.94 -2.51 q0 -1.52 -0.93 -2.5 t-2.41 -0.98 q-1.44 0 -2.36 0.97 t-0.94 2.51 z M36.12 14.4 q0.36 0 0.64 0.1 l-0.1 1.58 q-0.44 -0.12 -0.84 -0.12 q-1.36 0 -2.05 0.89 t-0.69 2.51 l0 4.64 l-1.56 0 l0 -7.28 q0 -0.28 -0.08 -2.08 l1.48 0 q0.04 1.4 0.04 1.54 l0.04 0 q0.38 -0.8 1.23 -1.29 t1.89 -0.49 z M39.1 14.64 l2.9 7.34 l0.04 0 l2.78 -7.34 l1.7 0 l-4.58 11.66 q-0.54 1.4 -1.23 1.95 t-1.83 0.55 q-0.86 0 -1.4 -0.24 l0.2 -1.36 q0.28 0.16 1.16 0.16 q1.12 0 1.62 -1.38 l0.7 -1.92 l-3.88 -9.42 l1.82 0 z  M58.34 9.84 q2.28 0 3.55 0.98 t1.31 2.9 q0 1.86 -1.24 2.87 t-3.32 1.05 l-2.92 0 l0 6.36 l-1.68 0 l0 -14.16 l4.3 0 z M58.64 16.08 q1.28 0 2.02 -0.62 t0.74 -1.72 t-0.73 -1.72 t-2.03 -0.62 l-2.92 0 l0 4.68 l2.92 0 z M70.08 14.4 q2.18 0 3.56 1.35 t1.44 3.57 q0 2.14 -1.4 3.51 t-3.6 1.41 q-2.2 0 -3.58 -1.39 t-1.42 -3.53 q0 -2.16 1.4 -3.53 t3.6 -1.39 z M66.76 19.32 q0 1.54 0.93 2.49 t2.39 0.99 q1.46 0 2.38 -0.97 t0.94 -2.51 q0 -1.52 -0.93 -2.5 t-2.41 -0.98 q-1.44 0 -2.36 0.97 t-0.94 2.51 z M78.42 9.84 q0.46 0 0.8 0.33 t0.34 0.81 q0 0.5 -0.32 0.82 t-0.82 0.32 t-0.82 -0.32 t-0.32 -0.82 q0 -0.48 0.34 -0.81 t0.8 -0.33 z M79.2 14.64 l0 9.36 l-1.56 0 l0 -9.36 l1.56 0 z M86.89999999999999 14.4 q1.76 0 2.66 1.02 t0.9 2.72 l0 5.86 l-1.56 0 l0 -5.68 q0 -1.08 -0.5 -1.77 t-1.64 -0.71 q-1.44 0 -2.17 0.95 t-0.73 2.63 l0 4.58 l-1.56 0 l0 -7.28 q0 -0.1 -0.08 -2.08 l1.48 0 q0.04 1.4 0.04 1.54 l0.04 0 q0.38 -0.8 1.23 -1.29 t1.89 -0.49 z M95.78 11.98 l0 2.66 l2.76 0 l0 1.32 l-2.76 0 l0 5 q0 1.12 0.36 1.48 t1.04 0.36 q0.78 0 1.38 -0.32 l0.06 1.42 q-0.8 0.34 -1.82 0.34 q-1.44 0 -2.01 -0.71 t-0.57 -2.33 l0 -5.24 l-2.04 0 l0 -1.32 l2.04 0 l0 -2.66 l1.56 0 z  M108.80000000000001 9.84 l4.8 11.1 l0.04 0 l4.84 -11.1 l2.44 0 l0 14.16 l-1.68 0 l0 -11.88 l-0.04 0 l-5.08 11.88 l-1.02 0 l-5.08 -11.88 l-0.04 0 l0 11.88 l-1.68 0 l0 -14.16 l2.5 0 z M127.76 14.4 q2.04 0 2.97 0.96 t0.95 2.9 l0 4.2 q0 0.6 0.14 1.54 l-1.5 0 q-0.1 -0.18 -0.1 -1.4 l-0.04 0 q-1.06 1.6 -3.08 1.64 q-1.54 0 -2.51 -0.77 t-0.97 -2.01 q0 -1.7 1.4 -2.49 t4.38 -0.79 l0.72 0 l0 -0.26 q0 -2.04 -2.32 -2.08 q-1.68 0 -2.78 1.02 l-0.98 -1.02 q1.44 -1.4 3.72 -1.44 z M125.30000000000001 21.3 q0 1.58 2.06 1.62 q1.22 0 1.99 -0.78 t0.77 -2.28 l0 -0.36 l-1.72 0 q-1.38 0 -2.23 0.44 t-0.87 1.36 z M139.14000000000001 14.4 q1.76 0 2.66 1.02 t0.9 2.72 l0 5.86 l-1.56 0 l0 -5.68 q0 -1.08 -0.5 -1.77 t-1.64 -0.71 q-1.44 0 -2.17 0.95 t-0.73 2.63 l0 4.58 l-1.56 0 l0 -7.28 q0 -0.1 -0.08 -2.08 l1.48 0 q0.04 1.4 0.04 1.54 l0.04 0 q0.38 -0.8 1.23 -1.29 t1.89 -0.49 z M149.26000000000002 14.4 q2.04 0 2.97 0.96 t0.95 2.9 l0 4.2 q0 0.6 0.14 1.54 l-1.5 0 q-0.1 -0.18 -0.1 -1.4 l-0.04 0 q-1.06 1.6 -3.08 1.64 q-1.54 0 -2.51 -0.77 t-0.97 -2.01 q0 -1.7 1.4 -2.49 t4.38 -0.79 l0.72 0 l0 -0.26 q0 -2.04 -2.32 -2.08 q-1.68 0 -2.78 1.02 l-0.98 -1.02 q1.44 -1.4 3.72 -1.44 z M146.8 21.3 q0 1.58 2.06 1.62 q1.22 0 1.99 -0.78 t0.77 -2.28 l0 -0.36 l-1.72 0 q-1.38 0 -2.23 0.44 t-0.87 1.36 z M160.46 14.4 q1.08 0 1.99 0.5 t1.33 1.34 l0.04 0 l0 -1.6 l1.56 0 l0 9.04 q0 2.4 -1.28 3.74 t-3.82 1.38 q-1.38 0 -2.5 -0.4 t-2.1 -1.38 l1.12 -1.28 q1.5 1.62 3.48 1.62 q3.54 0 3.54 -3.76 l0 -1.22 l-0.04 0 q-0.52 0.84 -1.44 1.29 t-1.88 0.45 q-2.16 0 -3.54 -1.35 t-1.42 -3.45 q0 -2.26 1.36 -3.58 t3.6 -1.34 z M157.18 19.32 q0 1.4 0.96 2.37 t2.34 0.99 q1.52 0 2.43 -0.98 t0.91 -2.42 q0 -1.54 -0.93 -2.48 t-2.43 -0.96 q-1.42 0 -2.35 1 t-0.93 2.48 z M172.52 14.4 q2.08 0 3.25 1.31 t1.19 3.71 l0 0.38 l-7.56 0 q0.12 1.3 0.98 2.14 t2.1 0.86 q1.9 0 2.96 -1.42 l1.18 0.92 q-0.74 0.96 -1.74 1.45 t-2.4 0.49 q-2.14 0 -3.44 -1.39 t-1.32 -3.53 q0 -2.12 1.33 -3.5 t3.47 -1.42 z M175.28 18.48 q-0.06 -1.22 -0.79 -1.93 t-2.05 -0.71 q-1.2 0 -2.02 0.68 t-1.02 1.96 l5.88 0 z M183.98000000000002 14.4 q0.36 0 0.64 0.1 l-0.1 1.58 q-0.44 -0.12 -0.84 -0.12 q-1.36 0 -2.05 0.89 t-0.69 2.51 l0 4.64 l-1.56 0 l0 -7.28 q0 -0.28 -0.08 -2.08 l1.48 0 q0.04 1.4 0.04 1.54 l0.04 0 q0.38 -0.8 1.23 -1.29 t1.89 -0.49 z"></path></g><defs id="SvgjsDefs1011"></defs><g id="SvgjsG1014" rel="mainfill" name="symbol" xmlns:name="symbol_mainfill" fill="#ffffff" transform="translate(125.86268107096353,86.61369333929244) scale(8.833333333333334)"><g xmlns="http://www.w3.org/2000/svg"><path fill="" d="M18,6.4c-0.1-0.1-0.3,0-0.3,0.1C17.3,7.6,17,8.8,17,10c0,1.2,0.3,2.4,0.7,3.5c0.1,0.1,0.2,0.2,0.3,0.1   c1.2-1,2-2.2,2-3.6C20,8.7,19.3,7.4,18,6.4z"></path><path fill="" d="M0,10c0,1.3,0.7,2.6,2,3.6c0.1,0.1,0.3,0,0.3-0.1C2.7,12.4,3,11.2,3,10c0-1.3-0.3-2.6-0.8-3.7   C0.8,7.3,0,8.6,0,10z"></path><path fill="" d="M15.9,5.2C14.3,4.4,12.2,4,10,4C7.8,4,5.7,4.4,4.1,5.2C4,5.2,3.9,5.3,4,5.4C4.6,6.8,5,8.4,5,10   c0,1.6-0.4,3.2-1,4.6c0,0.1,0,0.2,0.1,0.3C5.7,15.6,7.8,16,10,16c2.2,0,4.3-0.4,5.9-1.2c0.1,0,0.1-0.2,0.1-0.3   c-0.6-1.4-1-2.9-1-4.6c0-1.6,0.4-3.2,1-4.6C16.1,5.3,16,5.2,15.9,5.2z M13,10.6c0,0.2-0.2,0.4-0.4,0.4H7.4C7.2,11,7,10.8,7,10.6   V9.4C7,9.2,7.2,9,7.4,9h5.2C12.8,9,13,9.2,13,9.4V10.6z"></path></g></g><g id="SvgjsG1015" transform="translate(0,0) scale(2.1800344036545867)" rel="mainfill" name="outline_container" xmlns:name="outlineContainer_mainfill" fill="#ffffff"><defs xmlns="http://www.w3.org/2000/svg"></defs><g xmlns="http://www.w3.org/2000/svg">  <path d="M103.138,0.122c-0.303-0.016-0.608-0.023-0.912-0.035c-0.501-0.02-1.002-0.043-1.505-0.056C99.901,0.011,99.079,0,98.254,0    c-0.824,0-1.646,0.011-2.465,0.031c-0.534,0.013-1.064,0.038-1.595,0.059c-0.272,0.011-0.544,0.018-0.816,0.031    C41.456,2.672,0,45.711,0,98.254s41.456,95.582,93.377,98.132c0.271,0.014,0.544,0.02,0.816,0.031    c0.531,0.021,1.062,0.046,1.595,0.059c0.819,0.02,1.641,0.031,2.465,0.031c0.825,0,1.647-0.011,2.468-0.031    c0.503-0.013,1.004-0.036,1.505-0.056c0.304-0.013,0.608-0.02,0.912-0.035c51.917-2.554,93.369-45.592,93.369-98.132    C196.507,45.714,155.055,2.676,103.138,0.122z M164.759,167.035c-16.109,17.204-37.86,27.165-61.674,28.352    c-0.293,0.015-0.586,0.022-0.879,0.034c-0.503,0.02-1.006,0.043-1.511,0.056c-0.812,0.02-1.626,0.031-2.441,0.031    c-0.815,0-1.629-0.011-2.439-0.031c-0.538-0.014-1.073-0.037-1.608-0.06c-0.258-0.01-0.517-0.017-0.775-0.029    c-23.798-1.186-45.508-11.148-61.558-28.353c-16.844-18.057-26.12-42.484-26.12-68.781s9.276-50.725,26.12-68.781    C47.923,12.268,69.634,2.306,93.432,1.12c0.258-0.013,0.517-0.019,0.775-0.029c0.536-0.022,1.071-0.046,1.608-0.06    C96.625,1.011,97.438,1,98.254,1c0.816,0,1.63,0.011,2.441,0.031c0.505,0.012,1.007,0.035,1.511,0.056    c0.293,0.012,0.586,0.019,0.879,0.034c23.814,1.187,45.565,11.148,61.674,28.353c16.924,18.075,26.245,42.502,26.245,68.781    C191.004,124.533,181.684,148.96,164.759,167.035z"></path></g></g></svg>